<svg version="1.1" xmlns="http://www.w3.org/2000/svg" viewBox="0 0 695.9150659774925 507.5856905541664" width="695.9150659774925" height="507.5856905541664"><!-- svg-source:excalidraw --><metadata></metadata><defs><style class="style-fonts">
      </style></defs><g stroke-linecap="round"><g transform="translate(31.448348863389583 476.26937022879383) rotate(0 36.390054598078336 -36.390054598078336)"><path d="M0 0 C12.13 -12.13, 60.65 -60.65, 72.78 -72.78 M0 0 C12.13 -12.13, 60.65 -60.65, 72.78 -72.78" stroke="#f08c00" stroke-width="4" fill="none"></path></g></g><mask></mask><g stroke-linecap="round"><g transform="translate(132.16290306774647 377.1008397581189) rotate(0 29.636148242548586 -30.155679500666253)"><path d="M0 0 C9.88 -10.05, 49.39 -50.26, 59.27 -60.31 M0 0 C9.88 -10.05, 49.39 -50.26, 59.27 -60.31" stroke="#f08c00" stroke-width="4" fill="none"></path></g></g><mask></mask><g stroke-linecap="round"><g transform="translate(222.69024807598623 294.104744555055) rotate(0 29.636148242548643 -12.231851095606459)"><path d="M0 0 C9.88 -4.08, 49.39 -20.39, 59.27 -24.46 M0 0 C9.88 -4.08, 49.39 -20.39, 59.27 -24.46" stroke="#f08c00" stroke-width="4" fill="none"></path></g></g><mask></mask><g stroke-linecap="round"><g transform="translate(315.29571811669666 249.55396245269895) rotate(0 25.99942943572495 -16.38810116054782)"><path d="M0 0 C8.67 -5.46, 43.33 -27.31, 52 -32.78 M0 0 C8.67 -5.46, 43.33 -27.31, 52 -32.78" stroke="#f08c00" stroke-width="4" fill="none"></path></g></g><mask></mask><g stroke-linecap="round"><g transform="translate(400.57073248650397 199.71997667157018) rotate(0 25.613403721007955 -18.125216876774175)"><path d="M0 0 C8.54 -6.04, 42.69 -30.21, 51.23 -36.25 M0 0 C8.54 -6.04, 42.69 -30.21, 51.23 -36.25" stroke="#f08c00" stroke-width="4" fill="none"></path></g></g><mask></mask><g stroke-linecap="round"><g transform="translate(486.61779828574504 150.65804231987522) rotate(0 27.543532294592865 -4.4213040043220815)"><path d="M0 0 C9.18 -1.47, 45.91 -7.37, 55.09 -8.84 M0 0 C9.18 -1.47, 45.91 -7.37, 55.09 -8.84" stroke="#f08c00" stroke-width="4" fill="none"></path></g></g><mask></mask><g stroke-linecap="round"><g transform="translate(576.5251212321559 130.9340622866693) rotate(0 31.210776584404016 -23.915602597528547)"><path d="M0 0 C10.4 -7.97, 52.02 -39.86, 62.42 -47.83 M0 0 C10.4 -7.97, 52.02 -39.86, 62.42 -47.83" stroke="#f08c00" stroke-width="4" fill="none"></path></g></g><mask></mask><g stroke-linecap="round"><g transform="translate(29.22897834245299 10) rotate(0 0 233.8264822500413)"><path d="M0 0 C0 77.94, 0 389.71, 0 467.65 M0 0 C0 77.94, 0 389.71, 0 467.65" stroke="#1971c2" stroke-width="4" fill="none"></path></g></g><mask></mask><g stroke-linecap="round"><g transform="translate(29.37381558184643 478.6529645000826) rotate(0 328.27062519782305 0)"><path d="M0 0 C109.42 0, 547.12 0, 656.54 0 M0 0 C109.42 0, 547.12 0, 656.54 0" stroke="#1971c2" stroke-width="4" fill="none"></path></g></g><mask></mask><g stroke-linecap="round" transform="translate(100.89954363794311 370.93991451463353) rotate(0 18.02291923038922 18.02291923038922)"><path d="M36.05 18.02 C36.05 19.07, 35.95 20.13, 35.77 21.15 C35.59 22.18, 35.32 23.21, 34.96 24.19 C34.6 25.17, 34.15 26.13, 33.63 27.03 C33.11 27.94, 32.5 28.81, 31.83 29.61 C31.16 30.41, 30.41 31.16, 29.61 31.83 C28.81 32.5, 27.94 33.11, 27.03 33.63 C26.13 34.15, 25.17 34.6, 24.19 34.96 C23.21 35.32, 22.18 35.59, 21.15 35.77 C20.13 35.95, 19.07 36.05, 18.02 36.05 C16.98 36.05, 15.92 35.95, 14.89 35.77 C13.87 35.59, 12.84 35.32, 11.86 34.96 C10.88 34.6, 9.91 34.15, 9.01 33.63 C8.11 33.11, 7.24 32.5, 6.44 31.83 C5.64 31.16, 4.89 30.41, 4.22 29.61 C3.55 28.81, 2.94 27.94, 2.41 27.03 C1.89 26.13, 1.44 25.17, 1.09 24.19 C0.73 23.21, 0.45 22.18, 0.27 21.15 C0.09 20.13, 0 19.07, 0 18.02 C0 16.98, 0.09 15.92, 0.27 14.89 C0.45 13.87, 0.73 12.84, 1.09 11.86 C1.44 10.88, 1.89 9.91, 2.41 9.01 C2.94 8.11, 3.55 7.24, 4.22 6.44 C4.89 5.64, 5.64 4.89, 6.44 4.22 C7.24 3.55, 8.11 2.94, 9.01 2.41 C9.91 1.89, 10.88 1.44, 11.86 1.09 C12.84 0.73, 13.87 0.45, 14.89 0.27 C15.92 0.09, 16.98 0, 18.02 0 C19.07 0, 20.13 0.09, 21.15 0.27 C22.18 0.45, 23.21 0.73, 24.19 1.09 C25.17 1.44, 26.13 1.89, 27.03 2.41 C27.94 2.94, 28.81 3.55, 29.61 4.22 C30.41 4.89, 31.16 5.64, 31.83 6.44 C32.5 7.24, 33.11 8.11, 33.63 9.01 C34.15 9.91, 34.6 10.88, 34.96 11.86 C35.32 12.84, 35.59 13.87, 35.77 14.89 C35.95 15.92, 36 17.5, 36.05 18.02 C36.09 18.54, 36.09 17.5, 36.05 18.02" stroke="#e03131" stroke-width="4" fill="none"></path></g><g stroke-linecap="round" transform="translate(184.97929764117396 283.4665539840666) rotate(0 18.02291923038922 18.02291923038922)"><path d="M36.05 18.02 C36.05 19.07, 35.95 20.13, 35.77 21.15 C35.59 22.18, 35.32 23.21, 34.96 24.19 C34.6 25.17, 34.15 26.13, 33.63 27.03 C33.11 27.94, 32.5 28.81, 31.83 29.61 C31.16 30.41, 30.41 31.16, 29.61 31.83 C28.81 32.5, 27.94 33.11, 27.03 33.63 C26.13 34.15, 25.17 34.6, 24.19 34.96 C23.21 35.32, 22.18 35.59, 21.15 35.77 C20.13 35.95, 19.07 36.05, 18.02 36.05 C16.98 36.05, 15.92 35.95, 14.89 35.77 C13.87 35.59, 12.84 35.32, 11.86 34.96 C10.88 34.6, 9.91 34.15, 9.01 33.63 C8.11 33.11, 7.24 32.5, 6.44 31.83 C5.64 31.16, 4.89 30.41, 4.22 29.61 C3.55 28.81, 2.94 27.94, 2.41 27.03 C1.89 26.13, 1.44 25.17, 1.09 24.19 C0.73 23.21, 0.45 22.18, 0.27 21.15 C0.09 20.13, 0 19.07, 0 18.02 C0 16.98, 0.09 15.92, 0.27 14.89 C0.45 13.87, 0.73 12.84, 1.09 11.86 C1.44 10.88, 1.89 9.91, 2.41 9.01 C2.94 8.11, 3.55 7.24, 4.22 6.44 C4.89 5.64, 5.64 4.89, 6.44 4.22 C7.24 3.55, 8.11 2.94, 9.01 2.41 C9.91 1.89, 10.88 1.44, 11.86 1.09 C12.84 0.73, 13.87 0.45, 14.89 0.27 C15.92 0.09, 16.98 0, 18.02 0 C19.07 0, 20.13 0.09, 21.15 0.27 C22.18 0.45, 23.21 0.73, 24.19 1.09 C25.17 1.44, 26.13 1.89, 27.03 2.41 C27.94 2.94, 28.81 3.55, 29.61 4.22 C30.41 4.89, 31.16 5.64, 31.83 6.44 C32.5 7.24, 33.11 8.11, 33.63 9.01 C34.15 9.91, 34.6 10.88, 34.96 11.86 C35.32 12.84, 35.59 13.87, 35.77 14.89 C35.95 15.92, 36 17.5, 36.05 18.02 C36.09 18.54, 36.09 17.5, 36.05 18.02" stroke="#e03131" stroke-width="4" fill="none"></path></g><g stroke-linecap="round" transform="translate(279.45621010099876 240.18111689402332) rotate(0 18.02291923038922 18.02291923038922)"><path d="M36.05 18.02 C36.05 19.07, 35.95 20.13, 35.77 21.15 C35.59 22.18, 35.32 23.21, 34.96 24.19 C34.6 25.17, 34.15 26.13, 33.63 27.03 C33.11 27.94, 32.5 28.81, 31.83 29.61 C31.16 30.41, 30.41 31.16, 29.61 31.83 C28.81 32.5, 27.94 33.11, 27.03 33.63 C26.13 34.15, 25.17 34.6, 24.19 34.96 C23.21 35.32, 22.18 35.59, 21.15 35.77 C20.13 35.95, 19.07 36.05, 18.02 36.05 C16.98 36.05, 15.92 35.95, 14.89 35.77 C13.87 35.59, 12.84 35.32, 11.86 34.96 C10.88 34.6, 9.91 34.15, 9.01 33.63 C8.11 33.11, 7.24 32.5, 6.44 31.83 C5.64 31.16, 4.89 30.41, 4.22 29.61 C3.55 28.81, 2.94 27.94, 2.41 27.03 C1.89 26.13, 1.44 25.17, 1.09 24.19 C0.73 23.21, 0.45 22.18, 0.27 21.15 C0.09 20.13, 0 19.07, 0 18.02 C0 16.98, 0.09 15.92, 0.27 14.89 C0.45 13.87, 0.73 12.84, 1.09 11.86 C1.44 10.88, 1.89 9.91, 2.41 9.01 C2.94 8.11, 3.55 7.24, 4.22 6.44 C4.89 5.64, 5.64 4.89, 6.44 4.22 C7.24 3.55, 8.11 2.94, 9.01 2.41 C9.91 1.89, 10.88 1.44, 11.86 1.09 C12.84 0.73, 13.87 0.45, 14.89 0.27 C15.92 0.09, 16.98 0, 18.02 0 C19.07 0, 20.13 0.09, 21.15 0.27 C22.18 0.45, 23.21 0.73, 24.19 1.09 C25.17 1.44, 26.13 1.89, 27.03 2.41 C27.94 2.94, 28.81 3.55, 29.61 4.22 C30.41 4.89, 31.16 5.64, 31.83 6.44 C32.5 7.24, 33.11 8.11, 33.63 9.01 C34.15 9.91, 34.6 10.88, 34.96 11.86 C35.32 12.84, 35.59 13.87, 35.77 14.89 C35.95 15.92, 36 17.5, 36.05 18.02 C36.09 18.54, 36.09 17.5, 36.05 18.02" stroke="#e03131" stroke-width="4" fill="none"></path></g><g stroke-linecap="round" transform="translate(364.835608911304 191.69710057568312) rotate(0 18.02291923038922 18.02291923038922)"><path d="M36.05 18.02 C36.05 19.07, 35.95 20.13, 35.77 21.15 C35.59 22.18, 35.32 23.21, 34.96 24.19 C34.6 25.17, 34.15 26.13, 33.63 27.03 C33.11 27.94, 32.5 28.81, 31.83 29.61 C31.16 30.41, 30.41 31.16, 29.61 31.83 C28.81 32.5, 27.94 33.11, 27.03 33.63 C26.13 34.15, 25.17 34.6, 24.19 34.96 C23.21 35.32, 22.18 35.59, 21.15 35.77 C20.13 35.95, 19.07 36.05, 18.02 36.05 C16.98 36.05, 15.92 35.95, 14.89 35.77 C13.87 35.59, 12.84 35.32, 11.86 34.96 C10.88 34.6, 9.91 34.15, 9.01 33.63 C8.11 33.11, 7.24 32.5, 6.44 31.83 C5.64 31.16, 4.89 30.41, 4.22 29.61 C3.55 28.81, 2.94 27.94, 2.41 27.03 C1.89 26.13, 1.44 25.17, 1.09 24.19 C0.73 23.21, 0.45 22.18, 0.27 21.15 C0.09 20.13, 0 19.07, 0 18.02 C0 16.98, 0.09 15.92, 0.27 14.89 C0.45 13.87, 0.73 12.84, 1.09 11.86 C1.44 10.88, 1.89 9.91, 2.41 9.01 C2.94 8.11, 3.55 7.24, 4.22 6.44 C4.89 5.64, 5.64 4.89, 6.44 4.22 C7.24 3.55, 8.11 2.94, 9.01 2.41 C9.91 1.89, 10.88 1.44, 11.86 1.09 C12.84 0.73, 13.87 0.45, 14.89 0.27 C15.92 0.09, 16.98 0, 18.02 0 C19.07 0, 20.13 0.09, 21.15 0.27 C22.18 0.45, 23.21 0.73, 24.19 1.09 C25.17 1.44, 26.13 1.89, 27.03 2.41 C27.94 2.94, 28.81 3.55, 29.61 4.22 C30.41 4.89, 31.16 5.64, 31.83 6.44 C32.5 7.24, 33.11 8.11, 33.63 9.01 C34.15 9.91, 34.6 10.88, 34.96 11.86 C35.32 12.84, 35.59 13.87, 35.77 14.89 C35.95 15.92, 36 17.5, 36.05 18.02 C36.09 18.54, 36.09 17.5, 36.05 18.02" stroke="#e03131" stroke-width="4" fill="none"></path></g><g stroke-linecap="round" transform="translate(448.91536291453485 136.71486022197178) rotate(0 18.02291923038922 18.02291923038922)"><path d="M36.05 18.02 C36.05 19.07, 35.95 20.13, 35.77 21.15 C35.59 22.18, 35.32 23.21, 34.96 24.19 C34.6 25.17, 34.15 26.13, 33.63 27.03 C33.11 27.94, 32.5 28.81, 31.83 29.61 C31.16 30.41, 30.41 31.16, 29.61 31.83 C28.81 32.5, 27.94 33.11, 27.03 33.63 C26.13 34.15, 25.17 34.6, 24.19 34.96 C23.21 35.32, 22.18 35.59, 21.15 35.77 C20.13 35.95, 19.07 36.05, 18.02 36.05 C16.98 36.05, 15.92 35.95, 14.89 35.77 C13.87 35.59, 12.84 35.32, 11.86 34.96 C10.88 34.6, 9.91 34.15, 9.01 33.63 C8.11 33.11, 7.24 32.5, 6.44 31.83 C5.64 31.16, 4.89 30.41, 4.22 29.61 C3.55 28.81, 2.94 27.94, 2.41 27.03 C1.89 26.13, 1.44 25.17, 1.09 24.19 C0.73 23.21, 0.45 22.18, 0.27 21.15 C0.09 20.13, 0 19.07, 0 18.02 C0 16.98, 0.09 15.92, 0.27 14.89 C0.45 13.87, 0.73 12.84, 1.09 11.86 C1.44 10.88, 1.89 9.91, 2.41 9.01 C2.94 8.11, 3.55 7.24, 4.22 6.44 C4.89 5.64, 5.64 4.89, 6.44 4.22 C7.24 3.55, 8.11 2.94, 9.01 2.41 C9.91 1.89, 10.88 1.44, 11.86 1.09 C12.84 0.73, 13.87 0.45, 14.89 0.27 C15.92 0.09, 16.98 0, 18.02 0 C19.07 0, 20.13 0.09, 21.15 0.27 C22.18 0.45, 23.21 0.73, 24.19 1.09 C25.17 1.44, 26.13 1.89, 27.03 2.41 C27.94 2.94, 28.81 3.55, 29.61 4.22 C30.41 4.89, 31.16 5.64, 31.83 6.44 C32.5 7.24, 33.11 8.11, 33.63 9.01 C34.15 9.91, 34.6 10.88, 34.96 11.86 C35.32 12.84, 35.59 13.87, 35.77 14.89 C35.95 15.92, 36 17.5, 36.05 18.02 C36.09 18.54, 36.09 17.5, 36.05 18.02" stroke="#e03131" stroke-width="4" fill="none"></path></g><g stroke-linecap="round" transform="translate(539.4933409531369 115.5233848521903) rotate(0 18.022919230389164 18.02291923038922)"><path d="M36.05 18.02 C36.05 19.07, 35.95 20.13, 35.77 21.15 C35.59 22.18, 35.32 23.21, 34.96 24.19 C34.6 25.17, 34.15 26.13, 33.63 27.03 C33.11 27.94, 32.5 28.81, 31.83 29.61 C31.16 30.41, 30.41 31.16, 29.61 31.83 C28.81 32.5, 27.94 33.11, 27.03 33.63 C26.13 34.15, 25.17 34.6, 24.19 34.96 C23.21 35.32, 22.18 35.59, 21.15 35.77 C20.13 35.95, 19.07 36.05, 18.02 36.05 C16.98 36.05, 15.92 35.95, 14.89 35.77 C13.87 35.59, 12.84 35.32, 11.86 34.96 C10.88 34.6, 9.91 34.15, 9.01 33.63 C8.11 33.11, 7.24 32.5, 6.44 31.83 C5.64 31.16, 4.89 30.41, 4.22 29.61 C3.55 28.81, 2.94 27.94, 2.41 27.03 C1.89 26.13, 1.44 25.17, 1.09 24.19 C0.73 23.21, 0.45 22.18, 0.27 21.15 C0.09 20.13, 0 19.07, 0 18.02 C0 16.98, 0.09 15.92, 0.27 14.89 C0.45 13.87, 0.73 12.84, 1.09 11.86 C1.44 10.88, 1.89 9.91, 2.41 9.01 C2.94 8.11, 3.55 7.24, 4.22 6.44 C4.89 5.64, 5.64 4.89, 6.44 4.22 C7.24 3.55, 8.11 2.94, 9.01 2.41 C9.91 1.89, 10.88 1.44, 11.86 1.09 C12.84 0.73, 13.87 0.45, 14.89 0.27 C15.92 0.09, 16.98 0, 18.02 0 C19.07 0, 20.13 0.09, 21.15 0.27 C22.18 0.45, 23.21 0.73, 24.19 1.09 C25.17 1.44, 26.13 1.89, 27.03 2.41 C27.94 2.94, 28.81 3.55, 29.61 4.22 C30.41 4.89, 31.16 5.64, 31.83 6.44 C32.5 7.24, 33.11 8.11, 33.63 9.01 C34.15 9.91, 34.6 10.88, 34.96 11.86 C35.32 12.84, 35.59 13.87, 35.77 14.89 C35.95 15.92, 36 17.5, 36.05 18.02 C36.09 18.54, 36.09 17.5, 36.05 18.02" stroke="#e03131" stroke-width="4" fill="none"></path></g><g stroke-linecap="round" transform="translate(636.5695430271101 54.04292046310786) rotate(0 18.02291923038922 18.02291923038922)"><path d="M36.05 18.02 C36.05 19.07, 35.95 20.13, 35.77 21.15 C35.59 22.18, 35.32 23.21, 34.96 24.19 C34.6 25.17, 34.15 26.13, 33.63 27.03 C33.11 27.94, 32.5 28.81, 31.83 29.61 C31.16 30.41, 30.41 31.16, 29.61 31.83 C28.81 32.5, 27.94 33.11, 27.03 33.63 C26.13 34.15, 25.17 34.6, 24.19 34.96 C23.21 35.32, 22.18 35.59, 21.15 35.77 C20.13 35.95, 19.07 36.05, 18.02 36.05 C16.98 36.05, 15.92 35.95, 14.89 35.77 C13.87 35.59, 12.84 35.32, 11.86 34.96 C10.88 34.6, 9.91 34.15, 9.01 33.63 C8.11 33.11, 7.24 32.5, 6.44 31.83 C5.64 31.16, 4.89 30.41, 4.22 29.61 C3.55 28.81, 2.94 27.94, 2.41 27.03 C1.89 26.13, 1.44 25.17, 1.09 24.19 C0.73 23.21, 0.45 22.18, 0.27 21.15 C0.09 20.13, 0 19.07, 0 18.02 C0 16.98, 0.09 15.92, 0.27 14.89 C0.45 13.87, 0.73 12.84, 1.09 11.86 C1.44 10.88, 1.89 9.91, 2.41 9.01 C2.94 8.11, 3.55 7.24, 4.22 6.44 C4.89 5.64, 5.64 4.89, 6.44 4.22 C7.24 3.55, 8.11 2.94, 9.01 2.41 C9.91 1.89, 10.88 1.44, 11.86 1.09 C12.84 0.73, 13.87 0.45, 14.89 0.27 C15.92 0.09, 16.98 0, 18.02 0 C19.07 0, 20.13 0.09, 21.15 0.27 C22.18 0.45, 23.21 0.73, 24.19 1.09 C25.17 1.44, 26.13 1.89, 27.03 2.41 C27.94 2.94, 28.81 3.55, 29.61 4.22 C30.41 4.89, 31.16 5.64, 31.83 6.44 C32.5 7.24, 33.11 8.11, 33.63 9.01 C34.15 9.91, 34.6 10.88, 34.96 11.86 C35.32 12.84, 35.59 13.87, 35.77 14.89 C35.95 15.92, 36 17.5, 36.05 18.02 C36.09 18.54, 36.09 17.5, 36.05 18.02" stroke="#e03131" stroke-width="4" fill="none"></path></g><g stroke-linecap="round"><g transform="translate(10 388.4760413119651) rotate(0 19.5 0)"><path d="M0 0 C6.5 0, 32.5 0, 39 0 M0 0 C6.5 0, 32.5 0, 39 0" stroke="#1971c2" stroke-width="4" fill="none"></path></g></g><mask></mask><g stroke-linecap="round"><g transform="translate(101.03947935765382 477.3815907193125) rotate(89.80688350617763 19.5 0)"><path d="M0 0 C6.5 0, 32.5 0, 39 0 M0 0 C6.5 0, 32.5 0, 39 0" stroke="#1971c2" stroke-width="4" fill="none"></path></g></g><mask></mask><g stroke-linecap="round"><g transform="translate(191.76608272986778 477.5904927855539) rotate(89.80688350617763 19.5 0)"><path d="M0 0 C6.5 0, 32.5 0, 39 0 M0 0 C6.5 0, 32.5 0, 39 0" stroke="#1971c2" stroke-width="4" fill="none"></path></g></g><mask></mask><g stroke-linecap="round"><g transform="translate(373.42997907272957 477.63123957551215) rotate(89.80688350617763 19.5 0)"><path d="M0 0 C6.5 0, 32.5 0, 39 0 M0 0 C6.5 0, 32.5 0, 39 0" stroke="#1971c2" stroke-width="4" fill="none"></path></g></g><mask></mask><g stroke-linecap="round"><g transform="translate(463.9808761343098 477.8585204467174) rotate(89.80688350617763 19.5 0)"><path d="M0 0 C6.5 0, 32.5 0, 39 0 M0 0 C6.5 0, 32.5 0, 39 0" stroke="#1971c2" stroke-width="4" fill="none"></path></g></g><mask></mask><g stroke-linecap="round"><g transform="translate(555.1240592036959 478.0858013179227) rotate(89.80688350617763 19.5 0)"><path d="M0 0 C6.5 0, 32.5 0, 39 0 M0 0 C6.5 0, 32.5 0, 39 0" stroke="#1971c2" stroke-width="4" fill="none"></path></g></g><mask></mask><g stroke-linecap="round"><g transform="translate(10.073347741577095 297.7497169250271) rotate(0 19.5 0)"><path d="M0 0 C6.5 0, 32.5 0, 39 0 M0 0 C6.5 0, 32.5 0, 39 0" stroke="#1971c2" stroke-width="4" fill="none"></path></g></g><mask></mask><g stroke-linecap="round"><g transform="translate(282.49213899327003 477.35804592045474) rotate(89.80688350617763 19.5 0)"><path d="M0 0 C6.5 0, 32.5 0, 39 0 M0 0 C6.5 0, 32.5 0, 39 0" stroke="#1971c2" stroke-width="4" fill="none"></path></g></g><mask></mask><g stroke-linecap="round"><g transform="translate(645.850115467098 477.8533544528235) rotate(89.80688350617763 19.5 0)"><path d="M0 0 C6.5 0, 32.5 0, 39 0 M0 0 C6.5 0, 32.5 0, 39 0" stroke="#1971c2" stroke-width="4" fill="none"></path></g></g><mask></mask><g stroke-linecap="round"><g transform="translate(10.849539718063 116.32306162540044) rotate(0 19.49999999999997 0)"><path d="M0 0 C6.5 0, 32.5 0, 39 0 M0 0 C6.5 0, 32.5 0, 39 0" stroke="#1971c2" stroke-width="4" fill="none"></path></g></g><mask></mask><g stroke-linecap="round"><g transform="translate(10.289749426197659 207.03620485494434) rotate(0 19.5 0)"><path d="M0 0 C6.5 0, 32.5 0, 39 0 M0 0 C6.5 0, 32.5 0, 39 0" stroke="#1971c2" stroke-width="4" fill="none"></path></g></g><mask></mask><g stroke-linecap="round"><g transform="translate(10.700633300564618 116.48185412252661) rotate(0 19.5 0)"><path d="M0 0 C6.5 0, 32.5 0, 39 0 M0 0 C6.5 0, 32.5 0, 39 0" stroke="#1971c2" stroke-width="4" fill="none"></path></g></g><mask></mask><g stroke-linecap="round"><g transform="translate(11.065941402683563 25.6095495553177) rotate(0 19.50000000000003 0)"><path d="M0 0 C6.5 0, 32.5 0, 39 0 M0 0 C6.5 0, 32.5 0, 39 0" stroke="#1971c2" stroke-width="4" fill="none"></path></g></g><mask></mask></svg>