<svg version="1.1" xmlns="http://www.w3.org/2000/svg" viewBox="0 0 695.9150659774925 507.5856905541664" width="695.9150659774925" height="507.5856905541664"><!-- svg-source:excalidraw --><metadata></metadata><defs><style class="style-fonts">
      </style></defs><g stroke-linecap="round" transform="translate(74.66199047142095 317.3637371009436) rotate(0 45.42270291697048 80.6446136995695)"><path d="M0 0 C0 0, 0 0, 0 0 M0 0 C0 0, 0 0, 0 0 M0.27 24.08 C4.64 19.05, 9.02 14.01, 21.26 -0.07 M0.27 24.08 C5.57 17.98, 10.88 11.87, 21.26 -0.07 M-0.12 48.92 C12.75 34.1, 25.63 19.29, 42.52 -0.14 M-0.12 48.92 C12.54 34.35, 25.2 19.79, 42.52 -0.14 M0.14 73 C15.25 55.62, 30.36 38.24, 63.78 -0.21 M0.14 73 C15.99 54.77, 31.83 36.55, 63.78 -0.21 M-0.25 97.84 C22.12 72.11, 44.48 46.38, 85.04 -0.28 M-0.25 97.84 C28.68 64.56, 57.61 31.28, 85.04 -0.28 M0.02 121.92 C24.47 93.79, 48.92 65.66, 91.21 17.01 M0.02 121.92 C33.5 83.4, 66.98 44.89, 91.21 17.01 M0.29 146 C31.13 110.52, 61.98 75.03, 91.48 41.1 M0.29 146 C19 124.47, 37.72 102.93, 91.48 41.1 M7.77 161.78 C40.59 124.03, 73.41 86.27, 91.09 65.93 M7.77 161.78 C24.59 142.43, 41.41 123.08, 91.09 65.93 M29.03 161.71 C50.31 137.23, 71.59 112.76, 91.35 90.01 M29.03 161.71 C46.74 141.33, 64.46 120.95, 91.35 90.01 M50.29 161.64 C63.27 146.71, 76.24 131.78, 90.96 114.85 M50.29 161.64 C65 144.71, 79.72 127.78, 90.96 114.85 M71.55 161.57 C76.35 156.05, 81.15 150.53, 91.23 138.93 M71.55 161.57 C76.06 156.38, 80.57 151.19, 91.23 138.93 M0.14 161.41 C0.14 161.41, 0.14 161.41, 0.14 161.41 M0.14 161.41 C0.14 161.41, 0.14 161.41, 0.14 161.41 M24.22 161.14 C17.48 155.29, 10.75 149.43, 0.07 140.15 M24.22 161.14 C18 155.74, 11.79 150.34, 0.07 140.15 M49.06 161.53 C37.32 151.33, 25.58 141.13, 0 118.89 M49.06 161.53 C31.3 146.1, 13.54 130.66, 0 118.89 M73.14 161.27 C55.52 145.95, 37.9 130.63, -0.07 97.63 M73.14 161.27 C54.83 145.35, 36.51 129.43, -0.07 97.63 M91.18 155.75 C54.88 124.19, 18.58 92.64, -0.14 76.37 M91.18 155.75 C55.59 124.81, 19.99 93.86, -0.14 76.37 M91.11 134.49 C56.04 104, 20.96 73.51, -0.21 55.11 M91.11 134.49 C68.03 114.43, 44.95 94.36, -0.21 55.11 M91.05 113.23 C65.32 90.87, 39.6 68.51, -0.27 33.85 M91.05 113.23 C62.01 87.99, 32.98 62.76, -0.27 33.85 M90.98 91.97 C61.28 66.15, 31.57 40.34, -0.34 12.59 M90.98 91.97 C56.77 62.24, 22.56 32.5, -0.34 12.59 M90.91 70.71 C62.33 45.87, 33.76 21.03, 9.4 -0.14 M90.91 70.71 C64.39 47.66, 37.88 24.62, 9.4 -0.14 M90.84 49.45 C71.28 32.45, 51.72 15.45, 33.48 -0.41 M90.84 49.45 C74.25 35.04, 57.67 20.62, 33.48 -0.41 M90.77 28.19 C81.87 20.46, 72.97 12.72, 58.32 -0.02 M90.77 28.19 C84.12 22.41, 77.47 16.63, 58.32 -0.02 M91.46 7.59 C89.02 5.47, 86.58 3.35, 82.4 -0.29 M91.46 7.59 C88.43 4.96, 85.41 2.33, 82.4 -0.29" stroke="#ffc9c9" stroke-width="2" fill="none"></path><path d="M0 0 C28.82 0, 57.65 0, 90.85 0 M0 0 C25.69 0, 51.38 0, 90.85 0 M90.85 0 C90.85 38.28, 90.85 76.57, 90.85 161.29 M90.85 0 C90.85 51.41, 90.85 102.81, 90.85 161.29 M90.85 161.29 C64.64 161.29, 38.43 161.29, 0 161.29 M90.85 161.29 C68.35 161.29, 45.85 161.29, 0 161.29 M0 161.29 C0 96.94, 0 32.58, 0 0 M0 161.29 C0 113.19, 0 65.08, 0 0" stroke="#e03131" stroke-width="4" fill="none"></path></g><g stroke-linecap="round" transform="translate(165.54757054020706 263.46833850752637) rotate(0 45.42270291697048 107.59231299627811)"><path d="M0 0 C0 0, 0 0, 0 0 M0 0 C0 0, 0 0, 0 0 M0.27 24.08 C7.05 16.28, 13.83 8.48, 21.26 -0.07 M0.27 24.08 C7.2 16.1, 14.14 8.12, 21.26 -0.07 M-0.12 48.92 C14.93 31.6, 29.99 14.28, 42.52 -0.14 M-0.12 48.92 C12.85 34, 25.82 19.08, 42.52 -0.14 M0.14 73 C22.08 47.76, 44.02 22.53, 63.78 -0.21 M0.14 73 C13.24 57.93, 26.34 42.86, 63.78 -0.21 M-0.25 97.84 C31.47 61.35, 63.18 24.87, 85.04 -0.28 M-0.25 97.84 C28.8 64.42, 57.84 31.01, 85.04 -0.28 M0.02 121.92 C29.62 87.87, 59.22 53.82, 91.21 17.01 M0.02 121.92 C23.84 94.51, 47.66 67.11, 91.21 17.01 M0.29 146 C32.77 108.63, 65.25 71.27, 91.48 41.1 M0.29 146 C34.17 107.02, 68.06 68.04, 91.48 41.1 M-0.1 170.84 C20.88 146.7, 41.86 122.56, 91.09 65.93 M-0.1 170.84 C20.82 146.77, 41.74 122.7, 91.09 65.93 M0.16 194.92 C33.59 156.46, 67.02 118.01, 91.35 90.01 M0.16 194.92 C32.04 158.25, 63.92 121.57, 91.35 90.01 M3.05 215.98 C37.32 176.57, 71.58 137.15, 90.96 114.85 M3.05 215.98 C30.06 184.91, 57.08 153.83, 90.96 114.85 M24.31 215.91 C49.37 187.09, 74.43 158.26, 91.23 138.93 M24.31 215.91 C47.13 189.66, 69.95 163.41, 91.23 138.93 M45.57 215.84 C63.62 195.08, 81.67 174.32, 91.5 163.01 M45.57 215.84 C57.32 202.33, 69.06 188.82, 91.5 163.01 M66.83 215.77 C75.63 205.66, 84.42 195.55, 91.11 187.85 M66.83 215.77 C72.33 209.46, 77.82 203.14, 91.11 187.85 M88.09 215.7 C89.37 214.23, 90.65 212.76, 91.37 211.93 M88.09 215.7 C89.08 214.57, 90.06 213.44, 91.37 211.93 M-0.13 215.07 C-0.13 215.07, -0.13 215.07, -0.13 215.07 M-0.13 215.07 C-0.13 215.07, -0.13 215.07, -0.13 215.07 M24.71 215.46 C14.93 206.96, 5.15 198.46, -0.2 193.81 M24.71 215.46 C19.01 210.51, 13.31 205.55, -0.2 193.81 M48.79 215.19 C35.95 204.04, 23.12 192.88, -0.27 172.55 M48.79 215.19 C35.5 203.65, 22.22 192.1, -0.27 172.55 M72.87 214.93 C45.6 191.22, 18.33 167.52, -0.34 151.29 M72.87 214.93 C51.23 196.11, 29.58 177.3, -0.34 151.29 M90.91 209.41 C64.39 186.36, 37.87 163.3, 0.35 130.69 M90.91 209.41 C58.18 180.96, 25.46 152.51, 0.35 130.69 M90.84 188.15 C57.96 159.57, 25.08 130.99, 0.28 109.43 M90.84 188.15 C62.08 163.15, 33.32 138.15, 0.28 109.43 M90.77 166.89 C59.72 139.9, 28.67 112.9, 0.21 88.17 M90.77 166.89 C71.9 150.48, 53.02 134.08, 0.21 88.17 M91.46 146.29 C58.73 117.84, 26 89.38, 0.14 66.91 M91.46 146.29 C57.14 116.45, 22.81 86.61, 0.14 66.91 M91.39 125.03 C59.53 97.33, 27.67 69.64, 0.07 45.65 M91.39 125.03 C67.4 104.17, 43.4 83.31, 0.07 45.65 M91.32 103.77 C71.82 86.81, 52.31 69.85, 0 24.39 M91.32 103.77 C62.47 78.69, 33.62 53.61, 0 24.39 M91.25 82.51 C67.62 61.96, 43.98 41.41, -0.07 3.12 M91.25 82.51 C55.7 51.61, 20.16 20.7, -0.07 3.12 M91.18 61.25 C66.74 39.99, 42.29 18.74, 20.24 -0.42 M91.18 61.25 C73.66 46.01, 56.13 30.77, 20.24 -0.42 M91.12 39.99 C75.59 26.49, 60.07 13, 44.32 -0.69 M91.12 39.99 C73.95 25.06, 56.78 10.14, 44.32 -0.69 M91.05 18.73 C86.05 14.38, 81.05 10.04, 69.16 -0.3 M91.05 18.73 C85.73 14.11, 80.42 9.49, 69.16 -0.3" stroke="#ffc9c9" stroke-width="2" fill="none"></path><path d="M0 0 C22.57 0, 45.14 0, 90.85 0 M0 0 C22.69 0, 45.37 0, 90.85 0 M90.85 0 C90.85 62.02, 90.85 124.05, 90.85 215.18 M90.85 0 C90.85 66.33, 90.85 132.65, 90.85 215.18 M90.85 215.18 C61.36 215.18, 31.88 215.18, 0 215.18 M90.85 215.18 C56.69 215.18, 22.54 215.18, 0 215.18 M0 215.18 C0 139.29, 0 63.39, 0 0 M0 215.18 C0 157.93, 0 100.68, 0 0" stroke="#e03131" stroke-width="4" fill="none"></path></g><g stroke-linecap="round" transform="translate(256.4331506089932 171.7592328364699) rotate(0 45.42270291697048 153.44686583180635)"><path d="M0 0 C0 0, 0 0, 0 0 M0 0 C0 0, 0 0, 0 0 M0.27 24.08 C6.47 16.95, 12.67 9.82, 21.26 -0.07 M0.27 24.08 C7.17 16.14, 14.08 8.19, 21.26 -0.07 M-0.12 48.92 C13.88 32.81, 27.88 16.71, 42.52 -0.14 M-0.12 48.92 C10.87 36.28, 21.86 23.63, 42.52 -0.14 M0.14 73 C19.88 50.29, 39.63 27.58, 63.78 -0.21 M0.14 73 C19.76 50.43, 39.38 27.86, 63.78 -0.21 M-0.25 97.84 C26.42 67.16, 53.08 36.49, 85.04 -0.28 M-0.25 97.84 C28.91 64.29, 58.07 30.74, 85.04 -0.28 M0.02 121.92 C34.65 82.08, 69.28 42.24, 91.21 17.01 M0.02 121.92 C32.67 84.36, 65.32 46.8, 91.21 17.01 M0.29 146 C30.55 111.19, 60.81 76.37, 91.48 41.1 M0.29 146 C22.27 120.71, 44.26 95.41, 91.48 41.1 M-0.1 170.84 C24.34 142.72, 48.78 114.6, 91.09 65.93 M-0.1 170.84 C18.82 149.06, 37.75 127.29, 91.09 65.93 M0.16 194.92 C33.87 156.14, 67.58 117.36, 91.35 90.01 M0.16 194.92 C32.31 157.93, 64.47 120.94, 91.35 90.01 M-0.23 219.75 C18.3 198.44, 36.84 177.12, 90.96 114.85 M-0.23 219.75 C26.86 188.59, 53.95 157.43, 90.96 114.85 M0.04 243.84 C29.56 209.88, 59.07 175.92, 91.23 138.93 M0.04 243.84 C30.54 208.75, 61.04 173.66, 91.23 138.93 M0.3 267.92 C34.73 228.32, 69.15 188.72, 91.5 163.01 M0.3 267.92 C25.63 238.79, 50.95 209.66, 91.5 163.01 M-0.08 292.75 C27.79 260.69, 55.67 228.62, 91.11 187.85 M-0.08 292.75 C18.69 271.15, 37.47 249.55, 91.11 187.85 M8.71 307.02 C29.14 283.53, 49.56 260.03, 91.37 211.93 M8.71 307.02 C34.46 277.4, 60.21 247.78, 91.37 211.93 M29.97 306.96 C50.8 282.99, 71.64 259.02, 90.98 236.77 M29.97 306.96 C45.04 289.62, 60.1 272.29, 90.98 236.77 M50.57 307.64 C60.03 296.76, 69.48 285.89, 91.25 260.85 M50.57 307.64 C65.69 290.26, 80.8 272.87, 91.25 260.85 M71.83 307.57 C76.99 301.64, 82.14 295.71, 90.86 285.69 M71.83 307.57 C77.52 301.04, 83.2 294.5, 90.86 285.69 M-0.26 306.67 C-0.26 306.67, -0.26 306.67, -0.26 306.67 M-0.26 306.67 C-0.26 306.67, -0.26 306.67, -0.26 306.67 M24.58 307.06 C18.41 301.69, 12.23 296.33, -0.33 285.41 M24.58 307.06 C18.04 301.37, 11.49 295.68, -0.33 285.41 M48.66 306.79 C36.49 296.22, 24.33 285.64, 0.36 264.81 M48.66 306.79 C33.34 293.48, 18.02 280.16, 0.36 264.81 M73.5 307.18 C55.89 291.88, 38.28 276.57, 0.29 243.55 M73.5 307.18 C58.69 294.31, 43.88 281.44, 0.29 243.55 M90.79 301.01 C68.41 281.57, 46.04 262.12, 0.22 222.29 M90.79 301.01 C63.31 277.13, 35.83 253.24, 0.22 222.29 M91.47 280.41 C61.27 254.16, 31.07 227.9, 0.15 201.03 M91.47 280.41 C69.47 261.28, 47.46 242.15, 0.15 201.03 M91.4 259.15 C65.85 236.94, 40.3 214.72, 0.08 179.77 M91.4 259.15 C62.42 233.96, 33.44 208.76, 0.08 179.77 M91.33 237.89 C71.73 220.85, 52.12 203.8, 0.01 158.51 M91.33 237.89 C67.26 216.96, 43.18 196.03, 0.01 158.51 M91.27 216.63 C64.7 193.53, 38.13 170.44, -0.05 137.25 M91.27 216.63 C65.08 193.87, 38.9 171.11, -0.05 137.25 M91.2 195.37 C63.57 171.35, 35.93 147.33, -0.12 115.98 M91.2 195.37 C71.48 178.23, 51.76 161.09, -0.12 115.98 M91.13 174.11 C55.96 143.54, 20.79 112.97, -0.19 94.72 M91.13 174.11 C59.16 146.31, 27.18 118.52, -0.19 94.72 M91.06 152.85 C71.09 135.49, 51.13 118.13, -0.26 73.46 M91.06 152.85 C72.39 136.62, 53.72 120.39, -0.26 73.46 M90.99 131.59 C60.76 105.31, 30.52 79.02, -0.33 52.2 M90.99 131.59 C58.37 103.24, 25.76 74.88, -0.33 52.2 M90.92 110.33 C63.64 86.62, 36.37 62.91, 0.36 31.6 M90.92 110.33 C54.99 79.1, 19.07 47.87, 0.36 31.6 M90.85 89.07 C67.15 68.46, 43.45 47.86, 0.29 10.34 M90.85 89.07 C57.49 60.07, 24.13 31.07, 0.29 10.34 M90.78 67.81 C67.03 47.16, 43.29 26.52, 12.29 -0.42 M90.78 67.81 C65.57 45.89, 40.35 23.97, 12.29 -0.42 M91.47 47.2 C71.15 29.54, 50.83 11.88, 37.13 -0.03 M91.47 47.2 C72.17 30.43, 52.87 13.65, 37.13 -0.03 M91.4 25.94 C82.67 18.35, 73.94 10.76, 61.21 -0.3 M91.4 25.94 C80.31 16.3, 69.21 6.65, 61.21 -0.3 M91.33 4.68 C89.95 3.48, 88.57 2.28, 85.29 -0.57 M91.33 4.68 C89.52 3.11, 87.71 1.53, 85.29 -0.57" stroke="#ffc9c9" stroke-width="2" fill="none"></path><path d="M0 0 C32.68 0, 65.36 0, 90.85 0 M0 0 C30.6 0, 61.2 0, 90.85 0 M90.85 0 C90.85 90.06, 90.85 180.11, 90.85 306.89 M90.85 0 C90.85 67.38, 90.85 134.76, 90.85 306.89 M90.85 306.89 C63.56 306.89, 36.28 306.89, 0 306.89 M90.85 306.89 C68.13 306.89, 45.41 306.89, 0 306.89 M0 306.89 C0 204.07, 0 101.24, 0 0 M0 306.89 C0 214.24, 0 121.59, 0 0" stroke="#e03131" stroke-width="4" fill="none"></path></g><g stroke-linecap="round" transform="translate(347.3187306777793 260.42585632886585) rotate(0 45.42270291697048 109.11355408560837)"><path d="M0 0 C0 0, 0 0, 0 0 M0 0 C0 0, 0 0, 0 0 M0.27 24.08 C7.44 15.83, 14.62 7.57, 21.26 -0.07 M0.27 24.08 C5.47 18.09, 10.68 12.11, 21.26 -0.07 M-0.12 48.92 C11.08 36.03, 22.28 23.14, 42.52 -0.14 M-0.12 48.92 C10.62 36.56, 21.36 24.2, 42.52 -0.14 M0.14 73 C20.33 49.78, 40.51 26.57, 63.78 -0.21 M0.14 73 C15.45 55.39, 30.75 37.79, 63.78 -0.21 M-0.25 97.84 C17 77.99, 34.25 58.15, 85.04 -0.28 M-0.25 97.84 C20.82 73.6, 41.89 49.36, 85.04 -0.28 M0.02 121.92 C27.69 90.09, 55.36 58.26, 91.21 17.01 M0.02 121.92 C30.18 87.22, 60.34 52.53, 91.21 17.01 M0.29 146 C22.26 120.72, 44.24 95.44, 91.48 41.1 M0.29 146 C25.8 116.65, 51.32 87.29, 91.48 41.1 M-0.1 170.84 C28.84 137.54, 57.78 104.25, 91.09 65.93 M-0.1 170.84 C19.47 148.31, 39.05 125.79, 91.09 65.93 M0.16 194.92 C24.2 167.26, 48.25 139.6, 91.35 90.01 M0.16 194.92 C26.69 164.4, 53.22 133.88, 91.35 90.01 M0.43 219 C26.39 189.14, 52.34 159.28, 90.96 114.85 M0.43 219 C27.82 187.49, 55.22 155.97, 90.96 114.85 M21.69 218.93 C36.7 201.66, 51.72 184.38, 91.23 138.93 M21.69 218.93 C48.47 188.12, 75.25 157.32, 91.23 138.93 M42.95 218.86 C59.95 199.31, 76.94 179.76, 91.5 163.01 M42.95 218.86 C53.56 206.65, 64.18 194.44, 91.5 163.01 M64.21 218.79 C69.71 212.47, 75.21 206.14, 91.11 187.85 M64.21 218.79 C73.11 208.55, 82.02 198.3, 91.11 187.85 M85.47 218.72 C87.58 216.3, 89.69 213.87, 91.37 211.93 M85.47 218.72 C87.25 216.68, 89.03 214.63, 91.37 211.93 M-0.13 218.12 C-0.13 218.12, -0.13 218.12, -0.13 218.12 M-0.13 218.12 C-0.13 218.12, -0.13 218.12, -0.13 218.12 M24.71 218.51 C15.53 210.53, 6.36 202.56, -0.2 196.86 M24.71 218.51 C17.17 211.95, 9.64 205.4, -0.2 196.86 M48.79 218.24 C33.03 204.54, 17.27 190.84, -0.27 175.6 M48.79 218.24 C30.45 202.29, 12.11 186.35, -0.27 175.6 M72.87 217.97 C46.87 195.37, 20.87 172.77, -0.34 154.34 M72.87 217.97 C51.7 199.57, 30.52 181.16, -0.34 154.34 M90.92 212.46 C57.63 183.53, 24.35 154.59, 0.35 133.73 M90.92 212.46 C70.21 194.46, 49.51 176.47, 0.35 133.73 M90.85 191.2 C63.68 167.58, 36.5 143.96, 0.28 112.47 M90.85 191.2 C59.9 164.3, 28.96 137.4, 0.28 112.47 M90.78 169.94 C64.89 147.44, 39.01 124.93, 0.21 91.21 M90.78 169.94 C68.06 150.19, 45.34 130.44, 0.21 91.21 M91.46 149.33 C64.41 125.82, 37.36 102.31, 0.14 69.95 M91.46 149.33 C68.23 129.14, 45 108.94, 0.14 69.95 M91.39 128.07 C65.14 105.25, 38.88 82.43, 0.07 48.69 M91.39 128.07 C70.42 109.84, 49.44 91.61, 0.07 48.69 M91.33 106.81 C68.68 87.12, 46.03 67.44, 0.01 27.43 M91.33 106.81 C69.76 88.07, 48.2 69.33, 0.01 27.43 M91.26 85.55 C59.77 58.18, 28.28 30.81, -0.06 6.17 M91.26 85.55 C71.32 68.22, 51.38 50.89, -0.06 6.17 M91.19 64.29 C63.77 40.46, 36.36 16.63, 17.23 0 M91.19 64.29 C75.7 50.83, 60.21 37.36, 17.23 0 M91.12 43.03 C76.63 30.44, 62.14 17.84, 41.31 -0.27 M91.12 43.03 C79.46 32.9, 67.81 22.77, 41.31 -0.27 M91.05 21.77 C83.6 15.3, 76.15 8.82, 65.39 -0.53 M91.05 21.77 C83.07 14.83, 75.08 7.89, 65.39 -0.53 M90.98 0.51 C90.74 0.3, 90.5 0.09, 90.23 -0.14 M90.98 0.51 C90.71 0.28, 90.44 0.04, 90.23 -0.14" stroke="#ffc9c9" stroke-width="2" fill="none"></path><path d="M0 0 C18.71 0, 37.41 0, 90.85 0 M0 0 C22.45 0, 44.9 0, 90.85 0 M90.85 0 C90.85 67.98, 90.85 135.96, 90.85 218.23 M90.85 0 C90.85 74.52, 90.85 149.04, 90.85 218.23 M90.85 218.23 C68.41 218.23, 45.98 218.23, 0 218.23 M90.85 218.23 C69.73 218.23, 48.61 218.23, 0 218.23 M0 218.23 C0 137.14, 0 56.06, 0 0 M0 218.23 C0 159.11, 0 99.99, 0 0" stroke="#e03131" stroke-width="4" fill="none"></path></g><g stroke-linecap="round" transform="translate(438.2043107465654 316.4944564784689) rotate(0 45.42270291697048 81.07925401080684)"><path d="M0 0 C0 0, 0 0, 0 0 M0 0 C0 0, 0 0, 0 0 M0.27 24.08 C4.86 18.8, 9.45 13.52, 21.26 -0.07 M0.27 24.08 C6.51 16.9, 12.75 9.72, 21.26 -0.07 M-0.12 48.92 C14.53 32.06, 29.18 15.2, 42.52 -0.14 M-0.12 48.92 C14.03 32.64, 28.18 16.36, 42.52 -0.14 M0.14 73 C25.29 44.07, 50.45 15.13, 63.78 -0.21 M0.14 73 C13.22 57.96, 26.29 42.92, 63.78 -0.21 M-0.25 97.84 C26.17 67.45, 52.58 37.06, 85.04 -0.28 M-0.25 97.84 C27.93 65.43, 56.1 33.01, 85.04 -0.28 M0.02 121.92 C28.72 88.9, 57.43 55.88, 91.21 17.01 M0.02 121.92 C21.74 96.93, 43.47 71.94, 91.21 17.01 M0.29 146 C30.63 111.1, 60.97 76.2, 91.48 41.1 M0.29 146 C30.11 111.69, 59.93 77.39, 91.48 41.1 M7.11 162.53 C30.93 135.14, 54.74 107.74, 91.09 65.93 M7.11 162.53 C32.96 132.8, 58.81 103.06, 91.09 65.93 M28.37 162.47 C46.53 141.57, 64.7 120.68, 91.35 90.01 M28.37 162.47 C50.53 136.97, 72.7 111.48, 91.35 90.01 M49.63 162.4 C65.01 144.71, 80.38 127.02, 90.96 114.85 M49.63 162.4 C63.57 146.36, 77.51 130.32, 90.96 114.85 M70.89 162.33 C76.32 156.09, 81.74 149.85, 91.23 138.93 M70.89 162.33 C78.95 153.06, 87 143.8, 91.23 138.93 M-0.29 161.91 C-0.29 161.91, -0.29 161.91, -0.29 161.91 M-0.29 161.91 C-0.29 161.91, -0.29 161.91, -0.29 161.91 M24.55 162.3 C17.79 156.42, 11.03 150.55, -0.36 140.65 M24.55 162.3 C16.8 155.56, 9.05 148.83, -0.36 140.65 M48.63 162.03 C38.51 153.24, 28.4 144.45, 0.33 120.04 M48.63 162.03 C37.89 152.69, 27.15 143.36, 0.33 120.04 M73.46 162.42 C50 142.02, 26.54 121.63, 0.26 98.78 M73.46 162.42 C50.75 142.68, 28.04 122.93, 0.26 98.78 M90.75 156.25 C70.89 138.98, 51.03 121.72, 0.19 77.52 M90.75 156.25 C65.51 134.3, 40.26 112.35, 0.19 77.52 M91.44 135.64 C59.82 108.16, 28.2 80.67, 0.12 56.26 M91.44 135.64 C67.04 114.44, 42.64 93.23, 0.12 56.26 M91.37 114.38 C66.64 92.89, 41.91 71.39, 0.05 35 M91.37 114.38 C64.3 90.85, 37.22 67.31, 0.05 35 M91.3 93.12 C64.4 69.74, 37.49 46.35, -0.02 13.74 M91.3 93.12 C71.52 75.93, 51.74 58.73, -0.02 13.74 M91.23 71.86 C61.8 46.28, 32.37 20.69, 8.21 -0.3 M91.23 71.86 C61.91 46.38, 32.59 20.89, 8.21 -0.3 M91.16 50.6 C77.87 39.05, 64.58 27.49, 32.3 -0.57 M91.16 50.6 C76.19 37.59, 61.23 24.58, 32.3 -0.57 M91.09 29.34 C83.44 22.69, 75.8 16.04, 57.13 -0.18 M91.09 29.34 C79.63 19.38, 68.17 9.41, 57.13 -0.18 M91.02 8.08 C88.92 6.26, 86.82 4.43, 81.21 -0.45 M91.02 8.08 C88.7 6.06, 86.38 4.04, 81.21 -0.45" stroke="#ffc9c9" stroke-width="2" fill="none"></path><path d="M0 0 C30.84 0, 61.68 0, 90.85 0 M0 0 C30.76 0, 61.52 0, 90.85 0 M90.85 0 C90.85 47, 90.85 94, 90.85 162.16 M90.85 0 C90.85 42.43, 90.85 84.86, 90.85 162.16 M90.85 162.16 C59.13 162.16, 27.41 162.16, 0 162.16 M90.85 162.16 C71.44 162.16, 52.03 162.16, 0 162.16 M0 162.16 C0 106.55, 0 50.93, 0 0 M0 162.16 C0 111.43, 0 60.71, 0 0" stroke="#e03131" stroke-width="4" fill="none"></path></g><g stroke-linecap="round" transform="translate(529.0898908153515 279.9846703345413) rotate(0 45.42270291697048 99.33414708277064)"><path d="M0 0 C0 0, 0 0, 0 0 M0 0 C0 0, 0 0, 0 0 M0.27 24.08 C5.46 18.11, 10.65 12.14, 21.26 -0.07 M0.27 24.08 C6.1 17.38, 11.93 10.67, 21.26 -0.07 M-0.12 48.92 C9.02 38.4, 18.16 27.89, 42.52 -0.14 M-0.12 48.92 C15.42 31.04, 30.97 13.15, 42.52 -0.14 M0.14 73 C22.6 47.16, 45.06 21.32, 63.78 -0.21 M0.14 73 C24.75 44.69, 49.35 16.39, 63.78 -0.21 M-0.25 97.84 C19.15 75.52, 38.56 53.2, 85.04 -0.28 M-0.25 97.84 C26.06 67.57, 52.38 37.3, 85.04 -0.28 M0.02 121.92 C29.08 88.48, 58.15 55.05, 91.21 17.01 M0.02 121.92 C22.12 96.49, 44.22 71.07, 91.21 17.01 M0.29 146 C24.96 117.61, 49.64 89.23, 91.48 41.1 M0.29 146 C23.21 119.63, 46.13 93.26, 91.48 41.1 M-0.1 170.84 C21.52 145.96, 43.14 121.09, 91.09 65.93 M-0.1 170.84 C22.94 144.33, 45.98 117.83, 91.09 65.93 M0.16 194.92 C30.18 160.38, 60.2 125.85, 91.35 90.01 M0.16 194.92 C20.27 171.79, 40.38 148.66, 91.35 90.01 M17.49 199.38 C44.06 168.81, 70.62 138.25, 90.96 114.85 M17.49 199.38 C38.75 174.91, 60.02 150.45, 90.96 114.85 M38.75 199.31 C54.48 181.21, 70.21 163.11, 91.23 138.93 M38.75 199.31 C57.5 177.73, 76.25 156.16, 91.23 138.93 M60.01 199.24 C66.51 191.75, 73.02 184.27, 91.5 163.01 M60.01 199.24 C72.24 185.16, 84.48 171.08, 91.5 163.01 M81.27 199.17 C84.12 195.89, 86.97 192.61, 91.11 187.85 M81.27 199.17 C83.41 196.71, 85.54 194.25, 91.11 187.85 M-0.26 198.45 C-0.26 198.45, -0.26 198.45, -0.26 198.45 M-0.26 198.45 C-0.26 198.45, -0.26 198.45, -0.26 198.45 M24.58 198.84 C16.68 191.97, 8.78 185.1, -0.32 177.19 M24.58 198.84 C17.85 192.99, 11.13 187.14, -0.32 177.19 M48.66 198.57 C38.01 189.31, 27.35 180.04, 0.36 156.58 M48.66 198.57 C32.31 184.36, 15.96 170.15, 0.36 156.58 M73.5 198.96 C58 185.49, 42.5 172.01, 0.29 135.32 M73.5 198.96 C44.27 173.55, 15.05 148.15, 0.29 135.32 M90.79 192.79 C70.58 175.22, 50.37 157.65, 0.22 114.06 M90.79 192.79 C56.25 162.76, 21.71 132.74, 0.22 114.06 M91.47 172.18 C62.86 147.31, 34.24 122.43, 0.15 92.8 M91.47 172.18 C72.99 156.12, 54.51 140.05, 0.15 92.8 M91.41 150.92 C71.92 133.99, 52.44 117.05, 0.09 71.54 M91.41 150.92 C66.64 129.4, 41.87 107.87, 0.09 71.54 M91.34 129.66 C57.24 100.02, 23.14 70.38, 0.02 50.28 M91.34 129.66 C64.73 106.54, 38.12 83.41, 0.02 50.28 M91.27 108.4 C62.94 83.78, 34.61 59.15, -0.05 29.02 M91.27 108.4 C58.01 79.49, 24.75 50.58, -0.05 29.02 M91.2 87.14 C68.02 67, 44.85 46.85, -0.12 7.76 M91.2 87.14 C55.41 56.03, 19.62 24.92, -0.12 7.76 M91.13 65.88 C68.95 46.6, 46.76 27.32, 15.66 0.28 M91.13 65.88 C62.4 40.91, 33.66 15.93, 15.66 0.28 M91.06 44.62 C79.38 34.47, 67.7 24.32, 39.74 0.01 M91.06 44.62 C78.54 33.74, 66.02 22.86, 39.74 0.01 M90.99 23.36 C82.69 16.15, 74.4 8.94, 63.82 -0.25 M90.99 23.36 C82.7 16.16, 74.41 8.95, 63.82 -0.25 M90.92 2.1 C90.29 1.55, 89.66 1.01, 88.66 0.14 M90.92 2.1 C90.24 1.51, 89.56 0.92, 88.66 0.14" stroke="#ffc9c9" stroke-width="2" fill="none"></path><path d="M0 0 C23.94 0, 47.88 0, 90.85 0 M0 0 C23.92 0, 47.84 0, 90.85 0 M90.85 0 C90.85 49.75, 90.85 99.5, 90.85 198.67 M90.85 0 C90.85 77.26, 90.85 154.53, 90.85 198.67 M90.85 198.67 C64.45 198.67, 38.06 198.67, 0 198.67 M90.85 198.67 C60.49 198.67, 30.13 198.67, 0 198.67 M0 198.67 C0 125.17, 0 51.68, 0 0 M0 198.67 C0 144.7, 0 90.73, 0 0" stroke="#e03131" stroke-width="4" fill="none"></path></g><g stroke-linecap="round"><g transform="translate(29.37381558184643 478.6529645000826) rotate(0 328.27062519782305 0)"><path d="M0 0 C109.42 0, 547.12 0, 656.54 0 M0 0 C109.42 0, 547.12 0, 656.54 0" stroke="#1971c2" stroke-width="4" fill="none"></path></g></g><mask></mask><g stroke-linecap="round"><g transform="translate(29.228978342453047 10) rotate(0 0 233.8264822500413)"><path d="M0 0 C0 77.94, 0 389.71, 0 467.65 M0 0 C0 77.94, 0 389.71, 0 467.65" stroke="#1971c2" stroke-width="4" fill="none"></path></g></g><mask></mask><g stroke-linecap="round"><g transform="translate(10 388.4760413119652) rotate(0 19.5 0)"><path d="M0 0 C6.5 0, 32.5 0, 39 0 M0 0 C6.5 0, 32.5 0, 39 0" stroke="#1971c2" stroke-width="4" fill="none"></path></g></g><mask></mask><g stroke-linecap="round"><g transform="translate(101.03947935765382 477.3815907193125) rotate(89.80688350617763 19.5 0)"><path d="M0 0 C6.5 0, 32.5 0, 39 0 M0 0 C6.5 0, 32.5 0, 39 0" stroke="#1971c2" stroke-width="4" fill="none"></path></g></g><mask></mask><g stroke-linecap="round"><g transform="translate(191.76608272986778 477.59049278555403) rotate(89.80688350617763 19.5 0)"><path d="M0 0 C6.5 0, 32.5 0, 39 0 M0 0 C6.5 0, 32.5 0, 39 0" stroke="#1971c2" stroke-width="4" fill="none"></path></g></g><mask></mask><g stroke-linecap="round"><g transform="translate(373.42997907272957 477.63123957551215) rotate(89.80688350617763 19.5 0)"><path d="M0 0 C6.5 0, 32.5 0, 39 0 M0 0 C6.5 0, 32.5 0, 39 0" stroke="#1971c2" stroke-width="4" fill="none"></path></g></g><mask></mask><g stroke-linecap="round"><g transform="translate(463.98087613430994 477.8585204467174) rotate(89.80688350617763 19.5 0)"><path d="M0 0 C6.5 0, 32.5 0, 39 0 M0 0 C6.5 0, 32.5 0, 39 0" stroke="#1971c2" stroke-width="4" fill="none"></path></g></g><mask></mask><g stroke-linecap="round"><g transform="translate(555.1240592036959 478.0858013179227) rotate(89.80688350617763 19.5 0)"><path d="M0 0 C6.5 0, 32.5 0, 39 0 M0 0 C6.5 0, 32.5 0, 39 0" stroke="#1971c2" stroke-width="4" fill="none"></path></g></g><mask></mask><g stroke-linecap="round"><g transform="translate(10.073347741576981 297.7497169250271) rotate(0 19.5 0)"><path d="M0 0 C6.5 0, 32.5 0, 39 0 M0 0 C6.5 0, 32.5 0, 39 0" stroke="#1971c2" stroke-width="4" fill="none"></path></g></g><mask></mask><g stroke-linecap="round"><g transform="translate(282.49213899327015 477.35804592045474) rotate(89.80688350617763 19.5 0)"><path d="M0 0 C6.5 0, 32.5 0, 39 0 M0 0 C6.5 0, 32.5 0, 39 0" stroke="#1971c2" stroke-width="4" fill="none"></path></g></g><mask></mask><g stroke-linecap="round"><g transform="translate(645.850115467098 477.8533544528236) rotate(89.80688350617763 19.5 0)"><path d="M0 0 C6.5 0, 32.5 0, 39 0 M0 0 C6.5 0, 32.5 0, 39 0" stroke="#1971c2" stroke-width="4" fill="none"></path></g></g><mask></mask><g stroke-linecap="round"><g transform="translate(10.849539718062942 116.32306162540044) rotate(0 19.5 0)"><path d="M0 0 C6.5 0, 32.5 0, 39 0 M0 0 C6.5 0, 32.5 0, 39 0" stroke="#1971c2" stroke-width="4" fill="none"></path></g></g><mask></mask><g stroke-linecap="round"><g transform="translate(10.289749426197659 207.03620485494434) rotate(0 19.5 0)"><path d="M0 0 C6.5 0, 32.5 0, 39 0 M0 0 C6.5 0, 32.5 0, 39 0" stroke="#1971c2" stroke-width="4" fill="none"></path></g></g><mask></mask><g stroke-linecap="round"><g transform="translate(10.700633300564732 116.48185412252656) rotate(0 19.5 0)"><path d="M0 0 C6.5 0, 32.5 0, 39 0 M0 0 C6.5 0, 32.5 0, 39 0" stroke="#1971c2" stroke-width="4" fill="none"></path></g></g><mask></mask><g stroke-linecap="round"><g transform="translate(11.06594140268362 25.6095495553177) rotate(0 19.5 0)"><path d="M0 0 C6.5 0, 32.5 0, 39 0 M0 0 C6.5 0, 32.5 0, 39 0" stroke="#1971c2" stroke-width="4" fill="none"></path></g></g><mask></mask></svg>